<svg width="240" height="48" viewBox="0 0 240 48" fill="none" xmlns="http://www.w3.org/2000/svg">
<rect y="6" width="42" height="42" rx="10" fill="#434343"/>
<circle cx="20.9999" cy="26.9999" r="14.7778" fill="white"/>
<path d="M60.654 42V12.18H65.568V42H60.654ZM79.8165 42.42C76.6525 42.42 74.0065 41.384 71.8785 39.312C69.7785 37.212 68.7285 34.608 68.7285 31.5C68.7285 28.392 69.7785 25.802 71.8785 23.73C74.0065 21.63 76.6525 20.58 79.8165 20.58C81.9725 20.58 83.9045 21.098 85.6125 22.134C87.3485 23.17 88.6785 24.584 89.6025 26.376L85.5705 28.56C85.0385 27.44 84.2685 26.544 83.2605 25.872C82.2525 25.2 81.1045 24.864 79.8165 24.864C77.9685 24.864 76.4425 25.508 75.2385 26.796C74.0345 28.056 73.4325 29.624 73.4325 31.5C73.4325 33.376 74.0345 34.958 75.2385 36.246C76.4425 37.506 77.9685 38.136 79.8165 38.136C81.1045 38.136 82.2525 37.8 83.2605 37.128C84.2685 36.456 85.0385 35.56 85.5705 34.44L89.6025 36.624C88.6785 38.416 87.3485 39.83 85.6125 40.866C83.9045 41.902 81.9725 42.42 79.8165 42.42ZM109.448 39.27C107.348 41.37 104.744 42.42 101.636 42.42C98.5285 42.42 95.9105 41.37 93.7825 39.27C91.6825 37.142 90.6325 34.552 90.6325 31.5C90.6325 28.448 91.6825 25.872 93.7825 23.772C95.9105 21.644 98.5285 20.58 101.636 20.58C104.744 20.58 107.348 21.644 109.448 23.772C111.576 25.872 112.64 28.448 112.64 31.5C112.64 34.552 111.576 37.142 109.448 39.27ZM101.636 38.136C103.456 38.136 104.954 37.506 106.13 36.246C107.334 34.958 107.936 33.376 107.936 31.5C107.936 29.624 107.334 28.056 106.13 26.796C104.954 25.508 103.456 24.864 101.636 24.864C99.7885 24.864 98.2625 25.508 97.0585 26.796C95.8825 28.056 95.2945 29.624 95.2945 31.5C95.2945 33.376 95.8825 34.958 97.0585 36.246C98.2625 37.506 99.7885 38.136 101.636 38.136ZM115.607 42V21H120.227V23.856C121.543 21.672 123.671 20.58 126.611 20.58C129.047 20.58 130.993 21.378 132.449 22.974C133.905 24.57 134.633 26.698 134.633 29.358V42H130.013V30.114C130.013 28.434 129.621 27.132 128.837 26.208C128.053 25.256 126.989 24.78 125.645 24.78C124.049 24.78 122.747 25.382 121.739 26.586C120.731 27.79 120.227 29.484 120.227 31.668V42H115.607ZM152.935 42.504C148.651 42.504 145.011 41.02 142.015 38.052C139.019 35.056 137.521 31.402 137.521 27.09C137.521 22.778 139.019 19.138 142.015 16.17C145.011 13.174 148.651 11.676 152.935 11.676C155.819 11.676 158.437 12.362 160.789 13.734C163.141 15.078 165.003 16.912 166.375 19.236L162.133 21.672C159.977 18.172 156.911 16.422 152.935 16.422C149.995 16.422 147.517 17.458 145.501 19.53C143.485 21.602 142.477 24.122 142.477 27.09C142.477 30.058 143.485 32.578 145.501 34.65C147.517 36.722 149.995 37.758 152.935 37.758C156.911 37.758 159.977 36.008 162.133 32.508L166.375 34.944C165.003 37.268 163.141 39.116 160.789 40.488C158.437 41.832 155.819 42.504 152.935 42.504ZM168.849 42V21H173.469V24.738C173.861 23.562 174.575 22.61 175.611 21.882C176.675 21.154 177.809 20.79 179.013 20.79C179.741 20.79 180.343 20.846 180.819 20.958V25.704C180.147 25.452 179.377 25.326 178.509 25.326C177.109 25.326 175.919 25.9 174.939 27.048C173.959 28.168 173.469 29.736 173.469 31.752V42H168.849ZM191.036 42.42C188.18 42.42 185.772 41.356 183.812 39.228C181.88 37.1 180.914 34.524 180.914 31.5C180.914 28.476 181.88 25.9 183.812 23.772C185.772 21.644 188.18 20.58 191.036 20.58C192.464 20.58 193.78 20.902 194.984 21.546C196.188 22.162 197.112 22.918 197.756 23.814V21H202.376V42H197.756V39.186C197.112 40.082 196.188 40.852 194.984 41.496C193.78 42.112 192.464 42.42 191.036 42.42ZM187.382 36.288C188.558 37.576 190.056 38.22 191.876 38.22C193.696 38.22 195.194 37.576 196.37 36.288C197.546 35 198.134 33.404 198.134 31.5C198.134 29.596 197.546 28 196.37 26.712C195.194 25.424 193.696 24.78 191.876 24.78C190.056 24.78 188.558 25.424 187.382 26.712C186.206 28 185.618 29.596 185.618 31.5C185.618 33.404 186.206 35 187.382 36.288ZM208.929 42V25.116H204.561V21H208.929V17.22C208.929 14.952 209.587 13.23 210.903 12.054C212.247 10.85 213.983 10.248 216.111 10.248C217.399 10.248 218.547 10.416 219.555 10.752V14.868C218.911 14.588 218.085 14.448 217.077 14.448C215.845 14.448 214.949 14.728 214.389 15.288C213.829 15.82 213.549 16.73 213.549 18.018V21H218.799V25.116H213.549V42H208.929ZM231.735 42.21C229.635 42.21 227.913 41.622 226.569 40.446C225.225 39.242 224.553 37.506 224.553 35.238V25.116H220.983V21H224.553V15.162H229.173V21H235.179V25.116H229.173V34.482C229.173 35.77 229.453 36.68 230.013 37.212C230.601 37.744 231.497 38.01 232.701 38.01C233.681 38.01 234.507 37.884 235.179 37.632V41.748C234.171 42.056 233.023 42.21 231.735 42.21Z" fill="#434343"/>
</svg>
