<?xml version="1.0" encoding="utf-8"?>
<!-- Generator: Adobe Illustrator 27.8.1, SVG Export Plug-In . SVG Version: 6.00 Build 0)  -->
<svg version="1.1" id="图层_1" xmlns="http://www.w3.org/2000/svg" xmlns:xlink="http://www.w3.org/1999/xlink" x="0px" y="0px"
	 viewBox="0 0 240 48" style="enable-background:new 0 0 240 48;" xml:space="preserve">
<style type="text/css">
	.st0{fill:#434343;}
</style>
<path class="st0" d="M59.7,42V12.2h4.9V42H59.7z M78.8,42.4c-3.2,0-5.8-1-7.9-3.1c-2.1-2.1-3.2-4.7-3.2-7.8s1.1-5.7,3.2-7.8
	c2.1-2.1,4.8-3.1,7.9-3.1c2.2,0,4.1,0.5,5.8,1.6c1.7,1,3.1,2.4,4,4.2l-4,2.2c-0.5-1.1-1.3-2-2.3-2.7c-1-0.7-2.2-1-3.4-1
	c-1.8,0-3.4,0.6-4.6,1.9c-1.2,1.3-1.8,2.8-1.8,4.7s0.6,3.5,1.8,4.7c1.2,1.3,2.7,1.9,4.6,1.9c1.3,0,2.4-0.3,3.4-1
	c1-0.7,1.8-1.6,2.3-2.7l4,2.2c-0.9,1.8-2.3,3.2-4,4.2C82.9,41.9,81,42.4,78.8,42.4z M108.4,39.3c-2.1,2.1-4.7,3.1-7.8,3.1
	c-3.1,0-5.7-1-7.9-3.1c-2.1-2.1-3.2-4.7-3.2-7.8s1.1-5.6,3.2-7.7c2.1-2.1,4.7-3.2,7.9-3.2c3.1,0,5.7,1.1,7.8,3.2
	c2.1,2.1,3.2,4.7,3.2,7.7S110.6,37.1,108.4,39.3z M100.6,38.1c1.8,0,3.3-0.6,4.5-1.9c1.2-1.3,1.8-2.9,1.8-4.7s-0.6-3.4-1.8-4.7
	c-1.2-1.3-2.7-1.9-4.5-1.9c-1.8,0-3.4,0.6-4.6,1.9c-1.2,1.3-1.8,2.8-1.8,4.7s0.6,3.5,1.8,4.7C97.3,37.5,98.8,38.1,100.6,38.1z
	 M114.6,42V21h4.6v2.9c1.3-2.2,3.4-3.3,6.4-3.3c2.4,0,4.4,0.8,5.8,2.4c1.5,1.6,2.2,3.7,2.2,6.4V42H129V30.1c0-1.7-0.4-3-1.2-3.9
	c-0.8-1-1.8-1.4-3.2-1.4c-1.6,0-2.9,0.6-3.9,1.8c-1,1.2-1.5,2.9-1.5,5.1V42H114.6z M151.9,42.5c-4.3,0-7.9-1.5-10.9-4.5
	c-3-3-4.5-6.6-4.5-11s1.5-8,4.5-10.9c3-3,6.6-4.5,10.9-4.5c2.9,0,5.5,0.7,7.9,2.1c2.4,1.3,4.2,3.2,5.6,5.5l-4.2,2.4
	c-2.2-3.5-5.2-5.2-9.2-5.2c-2.9,0-5.4,1-7.4,3.1c-2,2.1-3,4.6-3,7.6s1,5.5,3,7.6c2,2.1,4.5,3.1,7.4,3.1c4,0,7-1.8,9.2-5.2l4.2,2.4
	c-1.4,2.3-3.2,4.2-5.6,5.5C157.4,41.8,154.8,42.5,151.9,42.5z M167.8,42V21h4.6v3.7c0.4-1.2,1.1-2.1,2.1-2.9
	c1.1-0.7,2.2-1.1,3.4-1.1c0.7,0,1.3,0.1,1.8,0.2v4.7c-0.7-0.3-1.4-0.4-2.3-0.4c-1.4,0-2.6,0.6-3.6,1.7c-1,1.1-1.5,2.7-1.5,4.7V42
	H167.8z M190,42.4c-2.9,0-5.3-1.1-7.2-3.2c-1.9-2.1-2.9-4.7-2.9-7.7s1-5.6,2.9-7.7c2-2.1,4.4-3.2,7.2-3.2c1.4,0,2.7,0.3,3.9,1
	c1.2,0.6,2.1,1.4,2.8,2.3V21h4.6v21h-4.6v-2.8c-0.6,0.9-1.6,1.7-2.8,2.3C192.8,42.1,191.5,42.4,190,42.4z M186.4,36.3
	c1.2,1.3,2.7,1.9,4.5,1.9c1.8,0,3.3-0.6,4.5-1.9c1.2-1.3,1.8-2.9,1.8-4.8s-0.6-3.5-1.8-4.8c-1.2-1.3-2.7-1.9-4.5-1.9
	c-1.8,0-3.3,0.6-4.5,1.9c-1.2,1.3-1.8,2.9-1.8,4.8S185.2,35,186.4,36.3z M207.9,42V25.1h-4.4V21h4.4v-3.8c0-2.3,0.7-4,2-5.2
	c1.3-1.2,3.1-1.8,5.2-1.8c1.3,0,2.4,0.2,3.4,0.5v4.1c-0.6-0.3-1.5-0.4-2.5-0.4c-1.2,0-2.1,0.3-2.7,0.8c-0.6,0.5-0.8,1.4-0.8,2.7v3
	h5.2v4.1h-5.2V42H207.9z M230.7,42.2c-2.1,0-3.8-0.6-5.2-1.8c-1.3-1.2-2-2.9-2-5.2V25.1H220V21h3.6v-5.8h4.6V21h6v4.1h-6v9.4
	c0,1.3,0.3,2.2,0.8,2.7c0.6,0.5,1.5,0.8,2.7,0.8c1,0,1.8-0.1,2.5-0.4v4.1C233.2,42.1,232,42.2,230.7,42.2z"/>
<path class="st0" d="M25.4,6.4c11.4,0,20.7,9.3,20.7,20.7s-9.3,20.7-20.7,20.7S4.7,38.5,4.7,27.1S14,6.4,25.4,6.4z M15.4,38.1H21
	l4.3-11l-4.3-11h-5.6V38.1z M29.8,38.1h5.6v-6.6l-9.9-4.4L29.8,38.1z M25.5,27.1l9.9-4.5v-6.5h-5.6L25.5,27.1z"/>
</svg>
